<?xml version="1.0" encoding="UTF-8" standalone="no"?>
<!DOCTYPE svg PUBLIC "-//W3C//DTD SVG 1.1//EN"
 "http://www.w3.org/Graphics/SVG/1.1/DTD/svg11.dtd">
<!-- Generated by graphviz version 2.40.1 (20161225.0304)
 -->
<!-- Title: G Pages: 1 -->
<svg width="632pt" height="591pt"
 viewBox="0.00 0.00 632.00 591.00" xmlns="http://www.w3.org/2000/svg" xmlns:xlink="http://www.w3.org/1999/xlink">
<g id="graph0" class="graph" transform="scale(1 1) rotate(0) translate(36 555)">
<title>G</title>
<polygon fill="#f7f7f7" stroke="transparent" points="-36,36 -36,-555 596,-555 596,36 -36,36"/>
<!-- appperson -->
<g id="node1" class="node">
<title>appperson</title>
<polygon fill="none" stroke="#000000" points="209,-519 0,-519 0,-149 209,-149 209,-519"/>
<polygon fill="#d3d3d3" stroke="transparent" points=".5,-482 .5,-519 209.5,-519 209.5,-482 .5,-482"/>
<polygon fill="none" stroke="#000000" points=".5,-482 .5,-519 209.5,-519 209.5,-482 .5,-482"/>
<text text-anchor="start" x="80.5" y="-496.8" font-family="Helvetica Neue" font-size="14.00" fill="#333333">Person</text>
<polygon fill="#ffffff" stroke="transparent" points=".5,-445 .5,-482 209.5,-482 209.5,-445 .5,-445"/>
<polygon fill="none" stroke="#000000" points=".5,-445 .5,-482 209.5,-482 209.5,-445 .5,-445"/>
<text text-anchor="start" x="11.5" y="-459.8" font-family="Helvetica Neue" font-size="14.00" fill="#333333">id (integer)</text>
<polygon fill="#ffffff" stroke="transparent" points=".5,-408 .5,-445 209.5,-445 209.5,-408 .5,-408"/>
<polygon fill="none" stroke="#000000" points=".5,-408 .5,-445 209.5,-445 209.5,-408 .5,-408"/>
<text text-anchor="start" x="11.5" y="-422.8" font-family="Helvetica Neue" font-size="14.00" fill="#333333">first_name (string)</text>
<polygon fill="#ffffff" stroke="transparent" points=".5,-371 .5,-408 209.5,-408 209.5,-371 .5,-371"/>
<polygon fill="none" stroke="#000000" points=".5,-371 .5,-408 209.5,-408 209.5,-371 .5,-371"/>
<text text-anchor="start" x="11.5" y="-385.8" font-family="Helvetica Neue" font-size="14.00" fill="#333333">last_name (string)</text>
<polygon fill="#ffffff" stroke="transparent" points=".5,-334 .5,-371 209.5,-371 209.5,-334 .5,-334"/>
<polygon fill="none" stroke="#000000" points=".5,-334 .5,-371 209.5,-371 209.5,-334 .5,-334"/>
<text text-anchor="start" x="11.5" y="-348.8" font-family="Helvetica Neue" font-size="14.00" fill="#333333">identification_card (string)</text>
<polygon fill="#ffffff" stroke="transparent" points=".5,-297 .5,-334 209.5,-334 209.5,-297 .5,-297"/>
<polygon fill="none" stroke="#000000" points=".5,-297 .5,-334 209.5,-334 209.5,-297 .5,-297"/>
<text text-anchor="start" x="11.5" y="-311.8" font-family="Helvetica Neue" font-size="14.00" fill="#333333">phone (string)</text>
<polygon fill="#ffffff" stroke="transparent" points=".5,-260 .5,-297 209.5,-297 209.5,-260 .5,-260"/>
<polygon fill="none" stroke="#000000" points=".5,-260 .5,-297 209.5,-297 209.5,-260 .5,-260"/>
<text text-anchor="start" x="11.5" y="-274.8" font-family="Helvetica Neue" font-size="14.00" fill="#333333">email (string)</text>
<polygon fill="#ffffff" stroke="transparent" points=".5,-223 .5,-260 209.5,-260 209.5,-223 .5,-223"/>
<polygon fill="none" stroke="#000000" points=".5,-223 .5,-260 209.5,-260 209.5,-223 .5,-223"/>
<text text-anchor="start" x="11.5" y="-237.8" font-family="Helvetica Neue" font-size="14.00" fill="#333333">user_id (integer)</text>
<polygon fill="#ffffff" stroke="transparent" points=".5,-186 .5,-223 209.5,-223 209.5,-186 .5,-186"/>
<polygon fill="none" stroke="#000000" points=".5,-186 .5,-223 209.5,-223 209.5,-186 .5,-186"/>
<text text-anchor="start" x="11.5" y="-200.8" font-family="Helvetica Neue" font-size="14.00" fill="#333333">created_at (datetime)</text>
<polygon fill="#ffffff" stroke="transparent" points=".5,-149 .5,-186 209.5,-186 209.5,-149 .5,-149"/>
<polygon fill="none" stroke="#000000" points=".5,-149 .5,-186 209.5,-186 209.5,-149 .5,-149"/>
<text text-anchor="start" x="11.5" y="-163.8" font-family="Helvetica Neue" font-size="14.00" fill="#333333">updated_at (datetime)</text>
</g>
<!-- appuser -->
<g id="node2" class="node">
<title>appuser</title>
<polygon fill="none" stroke="#000000" points="560,-296 358,-296 358,0 560,0 560,-296"/>
<polygon fill="#d3d3d3" stroke="transparent" points="358,-259 358,-296 560,-296 560,-259 358,-259"/>
<polygon fill="none" stroke="#000000" points="358,-259 358,-296 560,-296 560,-259 358,-259"/>
<text text-anchor="start" x="442" y="-273.8" font-family="Helvetica Neue" font-size="14.00" fill="#333333">User</text>
<polygon fill="#ffffff" stroke="transparent" points="358,-222 358,-259 560,-259 560,-222 358,-222"/>
<polygon fill="none" stroke="#000000" points="358,-222 358,-259 560,-259 560,-222 358,-222"/>
<text text-anchor="start" x="369" y="-236.8" font-family="Helvetica Neue" font-size="14.00" fill="#333333">id (integer)</text>
<polygon fill="#ffffff" stroke="transparent" points="358,-185 358,-222 560,-222 560,-185 358,-185"/>
<polygon fill="none" stroke="#000000" points="358,-185 358,-222 560,-222 560,-185 358,-185"/>
<text text-anchor="start" x="369" y="-199.8" font-family="Helvetica Neue" font-size="14.00" fill="#333333">name (string)</text>
<polygon fill="#ffffff" stroke="transparent" points="358,-148 358,-185 560,-185 560,-148 358,-148"/>
<polygon fill="none" stroke="#000000" points="358,-148 358,-185 560,-185 560,-148 358,-148"/>
<text text-anchor="start" x="369" y="-162.8" font-family="Helvetica Neue" font-size="14.00" fill="#333333">email (string)</text>
<polygon fill="#ffffff" stroke="transparent" points="358,-111 358,-148 560,-148 560,-111 358,-111"/>
<polygon fill="none" stroke="#000000" points="358,-111 358,-148 560,-148 560,-111 358,-111"/>
<text text-anchor="start" x="369" y="-125.8" font-family="Helvetica Neue" font-size="14.00" fill="#333333">password (string)</text>
<polygon fill="#ffffff" stroke="transparent" points="358,-74 358,-111 560,-111 560,-74 358,-74"/>
<polygon fill="none" stroke="#000000" points="358,-74 358,-111 560,-111 560,-74 358,-74"/>
<text text-anchor="start" x="369" y="-88.8" font-family="Helvetica Neue" font-size="14.00" fill="#333333">remember_token (string)</text>
<polygon fill="#ffffff" stroke="transparent" points="358,-37 358,-74 560,-74 560,-37 358,-37"/>
<polygon fill="none" stroke="#000000" points="358,-37 358,-74 560,-74 560,-37 358,-37"/>
<text text-anchor="start" x="369" y="-51.8" font-family="Helvetica Neue" font-size="14.00" fill="#333333">created_at (datetime)</text>
<polygon fill="#ffffff" stroke="transparent" points="358,0 358,-37 560,-37 560,0 358,0"/>
<polygon fill="none" stroke="#000000" points="358,0 358,-37 560,-37 560,0 358,0"/>
<text text-anchor="start" x="369" y="-14.8" font-family="Helvetica Neue" font-size="14.00" fill="#333333">updated_at (datetime)</text>
</g>
<!-- appperson&#45;&gt;appuser -->
<g id="edge1" class="edge">
<title>appperson:user_id&#45;&gt;appuser:id</title>
<path fill="none" stroke="#f77f00" stroke-width="1.8" d="M219.2414,-241C248.4338,-241 331.3441,-241 352.8522,-241"/>
<polygon fill="#f77f00" stroke="#f77f00" stroke-width="1.8" points="219,-241.0001 209,-236.5 214,-241 209,-241 209,-241 209,-241 214,-241 209,-245.5 219,-241.0001 219,-241.0001"/>
<polygon fill="#f77f00" stroke="#f77f00" stroke-width="1.8" points="356.9999,-236 357.0001,-246 355.0001,-246.0001 354.9999,-236.0001 356.9999,-236"/>
<polyline fill="none" stroke="#f77f00" stroke-width="1.8" points="358,-241 353,-241.0001 "/>
<text text-anchor="middle" x="283.5" y="-244.8" font-family="Helvetica Neue" font-size="14.00" fill="#000000"> </text>
<text text-anchor="middle" x="249.5468" y="-229.8" font-family="Helvetica Neue" font-size="14.00" fill="#000000">BelongsTo</text>
<text text-anchor="middle" x="249.5468" y="-214.8" font-family="Helvetica Neue" font-size="14.00" fill="#000000">user</text>
</g>
<!-- appuser&#45;&gt;appperson -->
<g id="edge2" class="edge">
<title>appuser:id&#45;&gt;appperson:user_id</title>
<path fill="none" stroke="#fcbf49" stroke-width="1.8" d="M358,-241C358,-241 286,-208 286,-208 286,-208 281,-208 281,-208 281,-208 237.493,-227.9407 218.1188,-236.8205"/>
<polygon fill="#fcbf49" stroke="#fcbf49" stroke-width="1.8" points="218.0907,-236.8334 207.125,-236.9092 213.5453,-238.9167 209,-241 209,-241 209,-241 213.5453,-238.9167 210.875,-245.0908 218.0907,-236.8334 218.0907,-236.8334"/>
<text text-anchor="middle" x="283.5" y="-211.8" font-family="Helvetica Neue" font-size="14.00" fill="#000000"> </text>
<text text-anchor="middle" x="321.2868" y="-197.8481" font-family="Helvetica Neue" font-size="14.00" fill="#000000">HasMany</text>
<text text-anchor="middle" x="321.2868" y="-182.8481" font-family="Helvetica Neue" font-size="14.00" fill="#000000">people</text>
</g>
</g>
</svg>
