<?xml version="1.0" encoding="UTF-8" standalone="no"?>
<!DOCTYPE svg PUBLIC "-//W3C//DTD SVG 1.1//EN"
 "http://www.w3.org/Graphics/SVG/1.1/DTD/svg11.dtd">
<!-- Generated by graphviz version 2.43.0 (0)
 -->
<!-- Title: G Pages: 1 -->
<svg width="621pt" height="591pt"
 viewBox="0.00 0.00 621.00 591.00" xmlns="http://www.w3.org/2000/svg" xmlns:xlink="http://www.w3.org/1999/xlink">
<g id="graph0" class="graph" transform="scale(1 1) rotate(0) translate(36 555)">
<title>G</title>
<polygon fill="#f7f7f7" stroke="transparent" points="-36,36 -36,-555 585,-555 585,36 -36,36"/>
<!-- appperson -->
<g id="node1" class="node">
<title>appperson</title>
<polygon fill="none" stroke="black" points="205,-519 0,-519 0,-149 205,-149 205,-519"/>
<polygon fill="#d3d3d3" stroke="transparent" points="0.5,-482 0.5,-519 205.5,-519 205.5,-482 0.5,-482"/>
<polygon fill="none" stroke="black" points="0.5,-482 0.5,-519 205.5,-519 205.5,-482 0.5,-482"/>
<text text-anchor="start" x="79" y="-496.8" font-family="Helvetica Neue" font-size="14.00" fill="#333333">Person</text>
<polygon fill="#ffffff" stroke="transparent" points="0.5,-445 0.5,-482 205.5,-482 205.5,-445 0.5,-445"/>
<polygon fill="none" stroke="black" points="0.5,-445 0.5,-482 205.5,-482 205.5,-445 0.5,-445"/>
<text text-anchor="start" x="11.5" y="-459.8" font-family="Helvetica Neue" font-size="14.00" fill="#333333">id (integer)</text>
<polygon fill="#ffffff" stroke="transparent" points="0.5,-408 0.5,-445 205.5,-445 205.5,-408 0.5,-408"/>
<polygon fill="none" stroke="black" points="0.5,-408 0.5,-445 205.5,-445 205.5,-408 0.5,-408"/>
<text text-anchor="start" x="11.5" y="-422.8" font-family="Helvetica Neue" font-size="14.00" fill="#333333">first_name (string)</text>
<polygon fill="#ffffff" stroke="transparent" points="0.5,-371 0.5,-408 205.5,-408 205.5,-371 0.5,-371"/>
<polygon fill="none" stroke="black" points="0.5,-371 0.5,-408 205.5,-408 205.5,-371 0.5,-371"/>
<text text-anchor="start" x="11.5" y="-385.8" font-family="Helvetica Neue" font-size="14.00" fill="#333333">last_name (string)</text>
<polygon fill="#ffffff" stroke="transparent" points="0.5,-334 0.5,-371 205.5,-371 205.5,-334 0.5,-334"/>
<polygon fill="none" stroke="black" points="0.5,-334 0.5,-371 205.5,-371 205.5,-334 0.5,-334"/>
<text text-anchor="start" x="11.5" y="-348.8" font-family="Helvetica Neue" font-size="14.00" fill="#333333">identification_card (string)</text>
<polygon fill="#ffffff" stroke="transparent" points="0.5,-297 0.5,-334 205.5,-334 205.5,-297 0.5,-297"/>
<polygon fill="none" stroke="black" points="0.5,-297 0.5,-334 205.5,-334 205.5,-297 0.5,-297"/>
<text text-anchor="start" x="11.5" y="-311.8" font-family="Helvetica Neue" font-size="14.00" fill="#333333">phone (string)</text>
<polygon fill="#ffffff" stroke="transparent" points="0.5,-260 0.5,-297 205.5,-297 205.5,-260 0.5,-260"/>
<polygon fill="none" stroke="black" points="0.5,-260 0.5,-297 205.5,-297 205.5,-260 0.5,-260"/>
<text text-anchor="start" x="11.5" y="-274.8" font-family="Helvetica Neue" font-size="14.00" fill="#333333">email (string)</text>
<polygon fill="#ffffff" stroke="transparent" points="0.5,-223 0.5,-260 205.5,-260 205.5,-223 0.5,-223"/>
<polygon fill="none" stroke="black" points="0.5,-223 0.5,-260 205.5,-260 205.5,-223 0.5,-223"/>
<text text-anchor="start" x="11.5" y="-237.8" font-family="Helvetica Neue" font-size="14.00" fill="#333333">user_id (integer)</text>
<polygon fill="#ffffff" stroke="transparent" points="0.5,-186 0.5,-223 205.5,-223 205.5,-186 0.5,-186"/>
<polygon fill="none" stroke="black" points="0.5,-186 0.5,-223 205.5,-223 205.5,-186 0.5,-186"/>
<text text-anchor="start" x="11.5" y="-200.8" font-family="Helvetica Neue" font-size="14.00" fill="#333333">created_at (datetime)</text>
<polygon fill="#ffffff" stroke="transparent" points="0.5,-149 0.5,-186 205.5,-186 205.5,-149 0.5,-149"/>
<polygon fill="none" stroke="black" points="0.5,-149 0.5,-186 205.5,-186 205.5,-149 0.5,-149"/>
<text text-anchor="start" x="11.5" y="-163.8" font-family="Helvetica Neue" font-size="14.00" fill="#333333">updated_at (datetime)</text>
</g>
<!-- appuser -->
<g id="node2" class="node">
<title>appuser</title>
<polygon fill="none" stroke="black" points="549,-296 354,-296 354,0 549,0 549,-296"/>
<polygon fill="#d3d3d3" stroke="transparent" points="354.5,-259 354.5,-296 549.5,-296 549.5,-259 354.5,-259"/>
<polygon fill="none" stroke="black" points="354.5,-259 354.5,-296 549.5,-296 549.5,-259 354.5,-259"/>
<text text-anchor="start" x="435.5" y="-273.8" font-family="Helvetica Neue" font-size="14.00" fill="#333333">User</text>
<polygon fill="#ffffff" stroke="transparent" points="354.5,-222 354.5,-259 549.5,-259 549.5,-222 354.5,-222"/>
<polygon fill="none" stroke="black" points="354.5,-222 354.5,-259 549.5,-259 549.5,-222 354.5,-222"/>
<text text-anchor="start" x="365.5" y="-236.8" font-family="Helvetica Neue" font-size="14.00" fill="#333333">id (integer)</text>
<polygon fill="#ffffff" stroke="transparent" points="354.5,-185 354.5,-222 549.5,-222 549.5,-185 354.5,-185"/>
<polygon fill="none" stroke="black" points="354.5,-185 354.5,-222 549.5,-222 549.5,-185 354.5,-185"/>
<text text-anchor="start" x="365.5" y="-199.8" font-family="Helvetica Neue" font-size="14.00" fill="#333333">name (string)</text>
<polygon fill="#ffffff" stroke="transparent" points="354.5,-148 354.5,-185 549.5,-185 549.5,-148 354.5,-148"/>
<polygon fill="none" stroke="black" points="354.5,-148 354.5,-185 549.5,-185 549.5,-148 354.5,-148"/>
<text text-anchor="start" x="365.5" y="-162.8" font-family="Helvetica Neue" font-size="14.00" fill="#333333">email (string)</text>
<polygon fill="#ffffff" stroke="transparent" points="354.5,-111 354.5,-148 549.5,-148 549.5,-111 354.5,-111"/>
<polygon fill="none" stroke="black" points="354.5,-111 354.5,-148 549.5,-148 549.5,-111 354.5,-111"/>
<text text-anchor="start" x="365.5" y="-125.8" font-family="Helvetica Neue" font-size="14.00" fill="#333333">password (string)</text>
<polygon fill="#ffffff" stroke="transparent" points="354.5,-74 354.5,-111 549.5,-111 549.5,-74 354.5,-74"/>
<polygon fill="none" stroke="black" points="354.5,-74 354.5,-111 549.5,-111 549.5,-74 354.5,-74"/>
<text text-anchor="start" x="365.5" y="-88.8" font-family="Helvetica Neue" font-size="14.00" fill="#333333">remember_token (string)</text>
<polygon fill="#ffffff" stroke="transparent" points="354.5,-37 354.5,-74 549.5,-74 549.5,-37 354.5,-37"/>
<polygon fill="none" stroke="black" points="354.5,-37 354.5,-74 549.5,-74 549.5,-37 354.5,-37"/>
<text text-anchor="start" x="365.5" y="-51.8" font-family="Helvetica Neue" font-size="14.00" fill="#333333">created_at (datetime)</text>
<polygon fill="#ffffff" stroke="transparent" points="354.5,0 354.5,-37 549.5,-37 549.5,0 354.5,0"/>
<polygon fill="none" stroke="black" points="354.5,0 354.5,-37 549.5,-37 549.5,0 354.5,0"/>
<text text-anchor="start" x="365.5" y="-14.8" font-family="Helvetica Neue" font-size="14.00" fill="#333333">updated_at (datetime)</text>
</g>
<!-- appperson&#45;&gt;appuser -->
<g id="edge1" class="edge">
<title>appperson:user_id&#45;&gt;appuser:id</title>
<path fill="none" stroke="#f77f00" stroke-width="1.8" d="M215.24,-241C244.43,-241 327.34,-241 348.85,-241"/>
<polygon fill="#f77f00" stroke="#f77f00" stroke-width="1.8" points="215,-241 205,-236.5 210,-241 205,-241 205,-241 205,-241 210,-241 205,-245.5 215,-241 215,-241"/>
<polygon fill="#f77f00" stroke="#f77f00" stroke-width="1.8" points="353,-236 353,-246 351,-246 351,-236 353,-236"/>
<polyline fill="none" stroke="#f77f00" stroke-width="1.8" points="354,-241 349,-241 "/>
<text text-anchor="middle" x="279.5" y="-244.8" font-family="Helvetica Neue" font-size="14.00"> </text>
<text text-anchor="middle" x="317.05" y="-229.8" font-family="Helvetica Neue" font-size="14.00">BelongsTo</text>
<text text-anchor="middle" x="317.05" y="-214.8" font-family="Helvetica Neue" font-size="14.00">user</text>
</g>
<!-- appuser&#45;&gt;appperson -->
<g id="edge2" class="edge">
<title>appuser:id&#45;&gt;appperson:user_id</title>
<path fill="none" stroke="#fcbf49" stroke-width="1.8" d="M354,-241C354,-241 282,-208 282,-208 282,-208 277,-208 277,-208 277,-208 233.49,-227.94 214.12,-236.82"/>
<polygon fill="#fcbf49" stroke="#fcbf49" stroke-width="1.8" points="214.09,-236.83 203.13,-236.91 209.55,-238.92 205,-241 205,-241 205,-241 209.55,-238.92 206.87,-245.09 214.09,-236.83 214.09,-236.83"/>
<text text-anchor="middle" x="279.5" y="-211.8" font-family="Helvetica Neue" font-size="14.00"> </text>
<text text-anchor="middle" x="316.29" y="-197.85" font-family="Helvetica Neue" font-size="14.00">HasMany</text>
<text text-anchor="middle" x="316.29" y="-182.85" font-family="Helvetica Neue" font-size="14.00">people</text>
</g>
</g>
</svg>
