<?xml version="1.0" encoding="UTF-8" standalone="no"?>
<!DOCTYPE svg PUBLIC "-//W3C//DTD SVG 1.1//EN"
 "http://www.w3.org/Graphics/SVG/1.1/DTD/svg11.dtd">
<!-- Generated by graphviz version 2.43.0 (0)
 -->
<!-- Title: G Pages: 1 -->
<svg width="1923pt" height="993pt"
 viewBox="0.00 0.00 1923.00 992.50" xmlns="http://www.w3.org/2000/svg" xmlns:xlink="http://www.w3.org/1999/xlink">
<g id="graph0" class="graph" transform="scale(1 1) rotate(0) translate(36 956.5)">
<title>G</title>
<polygon fill="#f7f7f7" stroke="transparent" points="-36,36 -36,-956.5 1887,-956.5 1887,36 -36,36"/>
<!-- appmodelscity -->
<g id="node1" class="node">
<title>appmodelscity</title>
<polygon fill="none" stroke="black" points="177,-479 0,-479 0,-220 177,-220 177,-479"/>
<polygon fill="#d3d3d3" stroke="transparent" points="0.5,-441.5 0.5,-478.5 177.5,-478.5 177.5,-441.5 0.5,-441.5"/>
<polygon fill="none" stroke="black" points="0.5,-441.5 0.5,-478.5 177.5,-478.5 177.5,-441.5 0.5,-441.5"/>
<text text-anchor="start" x="75" y="-456.3" font-family="Helvetica Neue" font-size="14.00" fill="#333333">City</text>
<polygon fill="#ffffff" stroke="transparent" points="0.5,-404.5 0.5,-441.5 177.5,-441.5 177.5,-404.5 0.5,-404.5"/>
<polygon fill="none" stroke="black" points="0.5,-404.5 0.5,-441.5 177.5,-441.5 177.5,-404.5 0.5,-404.5"/>
<text text-anchor="start" x="11.5" y="-419.3" font-family="Helvetica Neue" font-size="14.00" fill="#333333">id (bigint)</text>
<polygon fill="#ffffff" stroke="transparent" points="0.5,-367.5 0.5,-404.5 177.5,-404.5 177.5,-367.5 0.5,-367.5"/>
<polygon fill="none" stroke="black" points="0.5,-367.5 0.5,-404.5 177.5,-404.5 177.5,-367.5 0.5,-367.5"/>
<text text-anchor="start" x="11.5" y="-382.3" font-family="Helvetica Neue" font-size="14.00" fill="#333333">name (string)</text>
<polygon fill="#ffffff" stroke="transparent" points="0.5,-330.5 0.5,-367.5 177.5,-367.5 177.5,-330.5 0.5,-330.5"/>
<polygon fill="none" stroke="black" points="0.5,-330.5 0.5,-367.5 177.5,-367.5 177.5,-330.5 0.5,-330.5"/>
<text text-anchor="start" x="11.5" y="-345.3" font-family="Helvetica Neue" font-size="14.00" fill="#333333">code (string)</text>
<polygon fill="#ffffff" stroke="transparent" points="0.5,-293.5 0.5,-330.5 177.5,-330.5 177.5,-293.5 0.5,-293.5"/>
<polygon fill="none" stroke="black" points="0.5,-293.5 0.5,-330.5 177.5,-330.5 177.5,-293.5 0.5,-293.5"/>
<text text-anchor="start" x="11.5" y="-308.3" font-family="Helvetica Neue" font-size="14.00" fill="#333333">estate_id (bigint)</text>
<polygon fill="#ffffff" stroke="transparent" points="0.5,-256.5 0.5,-293.5 177.5,-293.5 177.5,-256.5 0.5,-256.5"/>
<polygon fill="none" stroke="black" points="0.5,-256.5 0.5,-293.5 177.5,-293.5 177.5,-256.5 0.5,-256.5"/>
<text text-anchor="start" x="11.5" y="-271.3" font-family="Helvetica Neue" font-size="14.00" fill="#333333">created_at (datetime)</text>
<polygon fill="#ffffff" stroke="transparent" points="0.5,-219.5 0.5,-256.5 177.5,-256.5 177.5,-219.5 0.5,-219.5"/>
<polygon fill="none" stroke="black" points="0.5,-219.5 0.5,-256.5 177.5,-256.5 177.5,-219.5 0.5,-219.5"/>
<text text-anchor="start" x="11.5" y="-234.3" font-family="Helvetica Neue" font-size="14.00" fill="#333333">updated_at (datetime)</text>
</g>
<!-- appmodelsestate -->
<g id="node2" class="node">
<title>appmodelsestate</title>
<polygon fill="none" stroke="black" points="503,-367 326,-367 326,-108 503,-108 503,-367"/>
<polygon fill="#d3d3d3" stroke="transparent" points="326.5,-329.5 326.5,-366.5 503.5,-366.5 503.5,-329.5 326.5,-329.5"/>
<polygon fill="none" stroke="black" points="326.5,-329.5 326.5,-366.5 503.5,-366.5 503.5,-329.5 326.5,-329.5"/>
<text text-anchor="start" x="393" y="-344.3" font-family="Helvetica Neue" font-size="14.00" fill="#333333">Estate</text>
<polygon fill="#ffffff" stroke="transparent" points="326.5,-292.5 326.5,-329.5 503.5,-329.5 503.5,-292.5 326.5,-292.5"/>
<polygon fill="none" stroke="black" points="326.5,-292.5 326.5,-329.5 503.5,-329.5 503.5,-292.5 326.5,-292.5"/>
<text text-anchor="start" x="337.5" y="-307.3" font-family="Helvetica Neue" font-size="14.00" fill="#333333">id (bigint)</text>
<polygon fill="#ffffff" stroke="transparent" points="326.5,-255.5 326.5,-292.5 503.5,-292.5 503.5,-255.5 326.5,-255.5"/>
<polygon fill="none" stroke="black" points="326.5,-255.5 326.5,-292.5 503.5,-292.5 503.5,-255.5 326.5,-255.5"/>
<text text-anchor="start" x="337.5" y="-270.3" font-family="Helvetica Neue" font-size="14.00" fill="#333333">name (string)</text>
<polygon fill="#ffffff" stroke="transparent" points="326.5,-218.5 326.5,-255.5 503.5,-255.5 503.5,-218.5 326.5,-218.5"/>
<polygon fill="none" stroke="black" points="326.5,-218.5 326.5,-255.5 503.5,-255.5 503.5,-218.5 326.5,-218.5"/>
<text text-anchor="start" x="337.5" y="-233.3" font-family="Helvetica Neue" font-size="14.00" fill="#333333">code (string)</text>
<polygon fill="#ffffff" stroke="transparent" points="326.5,-181.5 326.5,-218.5 503.5,-218.5 503.5,-181.5 326.5,-181.5"/>
<polygon fill="none" stroke="black" points="326.5,-181.5 326.5,-218.5 503.5,-218.5 503.5,-181.5 326.5,-181.5"/>
<text text-anchor="start" x="337.5" y="-196.3" font-family="Helvetica Neue" font-size="14.00" fill="#333333">country_id (bigint)</text>
<polygon fill="#ffffff" stroke="transparent" points="326.5,-144.5 326.5,-181.5 503.5,-181.5 503.5,-144.5 326.5,-144.5"/>
<polygon fill="none" stroke="black" points="326.5,-144.5 326.5,-181.5 503.5,-181.5 503.5,-144.5 326.5,-144.5"/>
<text text-anchor="start" x="337.5" y="-159.3" font-family="Helvetica Neue" font-size="14.00" fill="#333333">created_at (datetime)</text>
<polygon fill="#ffffff" stroke="transparent" points="326.5,-107.5 326.5,-144.5 503.5,-144.5 503.5,-107.5 326.5,-107.5"/>
<polygon fill="none" stroke="black" points="326.5,-107.5 326.5,-144.5 503.5,-144.5 503.5,-107.5 326.5,-107.5"/>
<text text-anchor="start" x="337.5" y="-122.3" font-family="Helvetica Neue" font-size="14.00" fill="#333333">updated_at (datetime)</text>
</g>
<!-- appmodelscity&#45;&gt;appmodelsestate -->
<g id="edge1" class="edge">
<title>appmodelscity:estate_id&#45;&gt;appmodelsestate:id</title>
<path fill="none" stroke="#f77f00" stroke-width="1.8" d="M187.24,-311.5C216.43,-311.5 299.34,-311.5 320.85,-311.5"/>
<polygon fill="#f77f00" stroke="#f77f00" stroke-width="1.8" points="187,-311.5 177,-307 182,-311.5 177,-311.5 177,-311.5 177,-311.5 182,-311.5 177,-316 187,-311.5 187,-311.5"/>
<polygon fill="#f77f00" stroke="#f77f00" stroke-width="1.8" points="325,-306.5 325,-316.5 323,-316.5 323,-306.5 325,-306.5"/>
<polyline fill="none" stroke="#f77f00" stroke-width="1.8" points="326,-311.5 321,-311.5 "/>
<text text-anchor="middle" x="251.5" y="-315.3" font-family="Helvetica Neue" font-size="14.00"> </text>
<text text-anchor="middle" x="289.05" y="-300.3" font-family="Helvetica Neue" font-size="14.00">BelongsTo</text>
<text text-anchor="middle" x="289.05" y="-285.3" font-family="Helvetica Neue" font-size="14.00">estate</text>
</g>
<!-- appmodelsestate&#45;&gt;appmodelscity -->
<g id="edge5" class="edge">
<title>appmodelsestate:id&#45;&gt;appmodelscity:estate_id</title>
<path fill="none" stroke="#fcbf49" stroke-width="1.8" d="M326,-311.5C326,-311.5 254,-278.5 254,-278.5 254,-278.5 249,-278.5 249,-278.5 249,-278.5 205.49,-298.44 186.12,-307.32"/>
<polygon fill="#fcbf49" stroke="#fcbf49" stroke-width="1.8" points="186.09,-307.33 175.13,-307.41 181.55,-309.42 177,-311.5 177,-311.5 177,-311.5 181.55,-309.42 178.87,-315.59 186.09,-307.33 186.09,-307.33"/>
<text text-anchor="middle" x="251.5" y="-282.3" font-family="Helvetica Neue" font-size="14.00"> </text>
<text text-anchor="middle" x="288.29" y="-268.35" font-family="Helvetica Neue" font-size="14.00">HasMany</text>
<text text-anchor="middle" x="288.29" y="-253.35" font-family="Helvetica Neue" font-size="14.00">cities</text>
</g>
<!-- appmodelscountry -->
<g id="node3" class="node">
<title>appmodelscountry</title>
<polygon fill="none" stroke="black" points="829,-185 652,-185 652,0 829,0 829,-185"/>
<polygon fill="#d3d3d3" stroke="transparent" points="652.5,-147.5 652.5,-184.5 829.5,-184.5 829.5,-147.5 652.5,-147.5"/>
<polygon fill="none" stroke="black" points="652.5,-147.5 652.5,-184.5 829.5,-184.5 829.5,-147.5 652.5,-147.5"/>
<text text-anchor="start" x="713" y="-162.3" font-family="Helvetica Neue" font-size="14.00" fill="#333333">Country</text>
<polygon fill="#ffffff" stroke="transparent" points="652.5,-110.5 652.5,-147.5 829.5,-147.5 829.5,-110.5 652.5,-110.5"/>
<polygon fill="none" stroke="black" points="652.5,-110.5 652.5,-147.5 829.5,-147.5 829.5,-110.5 652.5,-110.5"/>
<text text-anchor="start" x="663.5" y="-125.3" font-family="Helvetica Neue" font-size="14.00" fill="#333333">id (bigint)</text>
<polygon fill="#ffffff" stroke="transparent" points="652.5,-73.5 652.5,-110.5 829.5,-110.5 829.5,-73.5 652.5,-73.5"/>
<polygon fill="none" stroke="black" points="652.5,-73.5 652.5,-110.5 829.5,-110.5 829.5,-73.5 652.5,-73.5"/>
<text text-anchor="start" x="663.5" y="-88.3" font-family="Helvetica Neue" font-size="14.00" fill="#333333">name (string)</text>
<polygon fill="#ffffff" stroke="transparent" points="652.5,-36.5 652.5,-73.5 829.5,-73.5 829.5,-36.5 652.5,-36.5"/>
<polygon fill="none" stroke="black" points="652.5,-36.5 652.5,-73.5 829.5,-73.5 829.5,-36.5 652.5,-36.5"/>
<text text-anchor="start" x="663.5" y="-51.3" font-family="Helvetica Neue" font-size="14.00" fill="#333333">created_at (datetime)</text>
<polygon fill="#ffffff" stroke="transparent" points="652.5,0.5 652.5,-36.5 829.5,-36.5 829.5,0.5 652.5,0.5"/>
<polygon fill="none" stroke="black" points="652.5,0.5 652.5,-36.5 829.5,-36.5 829.5,0.5 652.5,0.5"/>
<text text-anchor="start" x="663.5" y="-14.3" font-family="Helvetica Neue" font-size="14.00" fill="#333333">updated_at (datetime)</text>
</g>
<!-- appmodelsestate&#45;&gt;appmodelscountry -->
<g id="edge3" class="edge">
<title>appmodelsestate:country_id&#45;&gt;appmodelscountry:id</title>
<path fill="none" stroke="#f77f00" stroke-width="1.8" d="M512.32,-195.12C540.86,-181.71 626.4,-141.53 647.34,-131.69"/>
<polygon fill="#f77f00" stroke="#f77f00" stroke-width="1.8" points="512.05,-195.25 501.09,-195.43 507.53,-197.37 503,-199.5 503,-199.5 503,-199.5 507.53,-197.37 504.91,-203.57 512.05,-195.25 512.05,-195.25"/>
<polygon fill="#f77f00" stroke="#f77f00" stroke-width="1.8" points="648.97,-125.4 653.22,-134.45 651.41,-135.3 647.16,-126.25 648.97,-125.4"/>
<polyline fill="none" stroke="#f77f00" stroke-width="1.8" points="652,-129.5 647.47,-131.63 "/>
<text text-anchor="middle" x="577.5" y="-168.3" font-family="Helvetica Neue" font-size="14.00"> </text>
<text text-anchor="middle" x="544.83" y="-152.21" font-family="Helvetica Neue" font-size="14.00">BelongsTo</text>
<text text-anchor="middle" x="544.83" y="-137.21" font-family="Helvetica Neue" font-size="14.00">country</text>
</g>
<!-- appmodelsmunicipality -->
<g id="node4" class="node">
<title>appmodelsmunicipality</title>
<polygon fill="none" stroke="black" points="829,-549 652,-549 652,-290 829,-290 829,-549"/>
<polygon fill="#d3d3d3" stroke="transparent" points="652.5,-511.5 652.5,-548.5 829.5,-548.5 829.5,-511.5 652.5,-511.5"/>
<polygon fill="none" stroke="black" points="652.5,-511.5 652.5,-548.5 829.5,-548.5 829.5,-511.5 652.5,-511.5"/>
<text text-anchor="start" x="699" y="-526.3" font-family="Helvetica Neue" font-size="14.00" fill="#333333">Municipality</text>
<polygon fill="#ffffff" stroke="transparent" points="652.5,-474.5 652.5,-511.5 829.5,-511.5 829.5,-474.5 652.5,-474.5"/>
<polygon fill="none" stroke="black" points="652.5,-474.5 652.5,-511.5 829.5,-511.5 829.5,-474.5 652.5,-474.5"/>
<text text-anchor="start" x="663.5" y="-489.3" font-family="Helvetica Neue" font-size="14.00" fill="#333333">id (bigint)</text>
<polygon fill="#ffffff" stroke="transparent" points="652.5,-437.5 652.5,-474.5 829.5,-474.5 829.5,-437.5 652.5,-437.5"/>
<polygon fill="none" stroke="black" points="652.5,-437.5 652.5,-474.5 829.5,-474.5 829.5,-437.5 652.5,-437.5"/>
<text text-anchor="start" x="663.5" y="-452.3" font-family="Helvetica Neue" font-size="14.00" fill="#333333">name (string)</text>
<polygon fill="#ffffff" stroke="transparent" points="652.5,-400.5 652.5,-437.5 829.5,-437.5 829.5,-400.5 652.5,-400.5"/>
<polygon fill="none" stroke="black" points="652.5,-400.5 652.5,-437.5 829.5,-437.5 829.5,-400.5 652.5,-400.5"/>
<text text-anchor="start" x="663.5" y="-415.3" font-family="Helvetica Neue" font-size="14.00" fill="#333333">code (string)</text>
<polygon fill="#ffffff" stroke="transparent" points="652.5,-363.5 652.5,-400.5 829.5,-400.5 829.5,-363.5 652.5,-363.5"/>
<polygon fill="none" stroke="black" points="652.5,-363.5 652.5,-400.5 829.5,-400.5 829.5,-363.5 652.5,-363.5"/>
<text text-anchor="start" x="663.5" y="-378.3" font-family="Helvetica Neue" font-size="14.00" fill="#333333">estate_id (bigint)</text>
<polygon fill="#ffffff" stroke="transparent" points="652.5,-326.5 652.5,-363.5 829.5,-363.5 829.5,-326.5 652.5,-326.5"/>
<polygon fill="none" stroke="black" points="652.5,-326.5 652.5,-363.5 829.5,-363.5 829.5,-326.5 652.5,-326.5"/>
<text text-anchor="start" x="663.5" y="-341.3" font-family="Helvetica Neue" font-size="14.00" fill="#333333">created_at (datetime)</text>
<polygon fill="#ffffff" stroke="transparent" points="652.5,-289.5 652.5,-326.5 829.5,-326.5 829.5,-289.5 652.5,-289.5"/>
<polygon fill="none" stroke="black" points="652.5,-289.5 652.5,-326.5 829.5,-326.5 829.5,-289.5 652.5,-289.5"/>
<text text-anchor="start" x="663.5" y="-304.3" font-family="Helvetica Neue" font-size="14.00" fill="#333333">updated_at (datetime)</text>
</g>
<!-- appmodelsestate&#45;&gt;appmodelsmunicipality -->
<g id="edge4" class="edge">
<title>appmodelsestate:id&#45;&gt;appmodelsmunicipality:estate_id</title>
<path fill="none" stroke="#fcbf49" stroke-width="1.8" d="M503,-311.5C503,-311.5 610.06,-361.8 642.68,-377.12"/>
<polygon fill="#fcbf49" stroke="#fcbf49" stroke-width="1.8" points="642.95,-377.25 650.09,-385.57 647.47,-379.37 652,-381.5 652,-381.5 652,-381.5 647.47,-379.37 653.91,-377.43 642.95,-377.25 642.95,-377.25"/>
<text text-anchor="middle" x="577.5" y="-350.3" font-family="Helvetica Neue" font-size="14.00"> </text>
<text text-anchor="middle" x="524.34" y="-363.11" font-family="Helvetica Neue" font-size="14.00">HasMany</text>
<text text-anchor="middle" x="524.34" y="-348.11" font-family="Helvetica Neue" font-size="14.00">municipalities</text>
</g>
<!-- appmodelscountry&#45;&gt;appmodelsestate -->
<g id="edge2" class="edge">
<title>appmodelscountry:id&#45;&gt;appmodelsestate:country_id</title>
<path fill="none" stroke="#fcbf49" stroke-width="1.8" d="M652,-129.5C652,-129.5 580,-107.5 580,-107.5 580,-107.5 575,-107.5 575,-107.5 575,-107.5 527.01,-168.82 509.39,-191.34"/>
<polygon fill="#fcbf49" stroke="#fcbf49" stroke-width="1.8" points="509.16,-191.62 499.46,-196.73 506.08,-195.56 503,-199.5 503,-199.5 503,-199.5 506.08,-195.56 506.54,-202.27 509.16,-191.62 509.16,-191.62"/>
<text text-anchor="middle" x="577.5" y="-111.3" font-family="Helvetica Neue" font-size="14.00"> </text>
<text text-anchor="middle" x="534.94" y="-106.6" font-family="Helvetica Neue" font-size="14.00">HasMany</text>
<text text-anchor="middle" x="534.94" y="-91.6" font-family="Helvetica Neue" font-size="14.00">estates</text>
</g>
<!-- appmodelsmunicipality&#45;&gt;appmodelsestate -->
<g id="edge6" class="edge">
<title>appmodelsmunicipality:estate_id&#45;&gt;appmodelsestate:id</title>
<path fill="none" stroke="#f77f00" stroke-width="1.8" d="M644.57,-374.48C626.17,-357.11 580,-313.5 580,-313.5 580,-313.5 525.18,-312.08 508.05,-311.63"/>
<polygon fill="#f77f00" stroke="#f77f00" stroke-width="1.8" points="644.73,-374.63 648.91,-384.77 648.36,-378.07 652,-381.5 652,-381.5 652,-381.5 648.36,-378.07 655.09,-378.23 644.73,-374.63 644.73,-374.63"/>
<polygon fill="#f77f00" stroke="#f77f00" stroke-width="1.8" points="503.87,-316.52 504.13,-306.53 506.13,-306.58 505.87,-316.58 503.87,-316.52"/>
<polyline fill="none" stroke="#f77f00" stroke-width="1.8" points="503,-311.5 508,-311.63 "/>
<text text-anchor="middle" x="577.5" y="-317.3" font-family="Helvetica Neue" font-size="14.00"> </text>
<text text-anchor="middle" x="551.12" y="-308.08" font-family="Helvetica Neue" font-size="14.00">BelongsTo</text>
<text text-anchor="middle" x="551.12" y="-293.08" font-family="Helvetica Neue" font-size="14.00">estate</text>
</g>
<!-- appmodelsparish -->
<g id="node5" class="node">
<title>appmodelsparish</title>
<polygon fill="none" stroke="black" points="1160,-661 978,-661 978,-402 1160,-402 1160,-661"/>
<polygon fill="#d3d3d3" stroke="transparent" points="978,-623.5 978,-660.5 1160,-660.5 1160,-623.5 978,-623.5"/>
<polygon fill="none" stroke="black" points="978,-623.5 978,-660.5 1160,-660.5 1160,-623.5 978,-623.5"/>
<text text-anchor="start" x="1047.5" y="-638.3" font-family="Helvetica Neue" font-size="14.00" fill="#333333">Parish</text>
<polygon fill="#ffffff" stroke="transparent" points="978,-586.5 978,-623.5 1160,-623.5 1160,-586.5 978,-586.5"/>
<polygon fill="none" stroke="black" points="978,-586.5 978,-623.5 1160,-623.5 1160,-586.5 978,-586.5"/>
<text text-anchor="start" x="989" y="-601.3" font-family="Helvetica Neue" font-size="14.00" fill="#333333">id (bigint)</text>
<polygon fill="#ffffff" stroke="transparent" points="978,-549.5 978,-586.5 1160,-586.5 1160,-549.5 978,-549.5"/>
<polygon fill="none" stroke="black" points="978,-549.5 978,-586.5 1160,-586.5 1160,-549.5 978,-549.5"/>
<text text-anchor="start" x="989" y="-564.3" font-family="Helvetica Neue" font-size="14.00" fill="#333333">name (string)</text>
<polygon fill="#ffffff" stroke="transparent" points="978,-512.5 978,-549.5 1160,-549.5 1160,-512.5 978,-512.5"/>
<polygon fill="none" stroke="black" points="978,-512.5 978,-549.5 1160,-549.5 1160,-512.5 978,-512.5"/>
<text text-anchor="start" x="989" y="-527.3" font-family="Helvetica Neue" font-size="14.00" fill="#333333">code (string)</text>
<polygon fill="#ffffff" stroke="transparent" points="978,-475.5 978,-512.5 1160,-512.5 1160,-475.5 978,-475.5"/>
<polygon fill="none" stroke="black" points="978,-475.5 978,-512.5 1160,-512.5 1160,-475.5 978,-475.5"/>
<text text-anchor="start" x="989" y="-490.3" font-family="Helvetica Neue" font-size="14.00" fill="#333333">municipality_id (bigint)</text>
<polygon fill="#ffffff" stroke="transparent" points="978,-438.5 978,-475.5 1160,-475.5 1160,-438.5 978,-438.5"/>
<polygon fill="none" stroke="black" points="978,-438.5 978,-475.5 1160,-475.5 1160,-438.5 978,-438.5"/>
<text text-anchor="start" x="989" y="-453.3" font-family="Helvetica Neue" font-size="14.00" fill="#333333">created_at (datetime)</text>
<polygon fill="#ffffff" stroke="transparent" points="978,-401.5 978,-438.5 1160,-438.5 1160,-401.5 978,-401.5"/>
<polygon fill="none" stroke="black" points="978,-401.5 978,-438.5 1160,-438.5 1160,-401.5 978,-401.5"/>
<text text-anchor="start" x="989" y="-416.3" font-family="Helvetica Neue" font-size="14.00" fill="#333333">updated_at (datetime)</text>
</g>
<!-- appmodelsmunicipality&#45;&gt;appmodelsparish -->
<g id="edge7" class="edge">
<title>appmodelsmunicipality:id&#45;&gt;appmodelsparish:municipality_id</title>
<path fill="none" stroke="#fcbf49" stroke-width="1.8" d="M829,-493.5C829,-493.5 934.1,-493.5 967.76,-493.5"/>
<polygon fill="#fcbf49" stroke="#fcbf49" stroke-width="1.8" points="968,-493.5 978,-498 973,-493.5 978,-493.5 978,-493.5 978,-493.5 973,-493.5 978,-489 968,-493.5 968,-493.5"/>
<text text-anchor="middle" x="903.5" y="-497.3" font-family="Helvetica Neue" font-size="14.00"> </text>
<text text-anchor="middle" x="866.38" y="-482.3" font-family="Helvetica Neue" font-size="14.00">HasMany</text>
<text text-anchor="middle" x="866.38" y="-467.3" font-family="Helvetica Neue" font-size="14.00">parishes</text>
</g>
<!-- appmodelsparish&#45;&gt;appmodelsmunicipality -->
<g id="edge8" class="edge">
<title>appmodelsparish:municipality_id&#45;&gt;appmodelsmunicipality:id</title>
<path fill="none" stroke="#f77f00" stroke-width="1.8" d="M968.88,-489.32C949.51,-480.44 906,-460.5 906,-460.5 906,-460.5 901,-460.5 901,-460.5 901,-460.5 849.74,-483.99 833.72,-491.33"/>
<polygon fill="#f77f00" stroke="#f77f00" stroke-width="1.8" points="968.91,-489.33 976.13,-497.59 973.45,-491.42 978,-493.5 978,-493.5 978,-493.5 973.45,-491.42 979.87,-489.41 968.91,-489.33 968.91,-489.33"/>
<polygon fill="#f77f00" stroke="#f77f00" stroke-width="1.8" points="831.99,-497.63 827.83,-488.54 829.64,-487.7 833.81,-496.8 831.99,-497.63"/>
<polyline fill="none" stroke="#f77f00" stroke-width="1.8" points="829,-493.5 833.55,-491.42 "/>
<text text-anchor="middle" x="903.5" y="-464.3" font-family="Helvetica Neue" font-size="14.00"> </text>
<text text-anchor="middle" x="943.58" y="-449.3" font-family="Helvetica Neue" font-size="14.00">BelongsTo</text>
<text text-anchor="middle" x="943.58" y="-434.3" font-family="Helvetica Neue" font-size="14.00">municipality</text>
</g>
<!-- appmodelsperson -->
<g id="node6" class="node">
<title>appmodelsperson</title>
<polygon fill="none" stroke="black" points="1486,-920.5 1309,-920.5 1309,-476.5 1486,-476.5 1486,-920.5"/>
<polygon fill="#d3d3d3" stroke="transparent" points="1309.5,-883.5 1309.5,-920.5 1486.5,-920.5 1486.5,-883.5 1309.5,-883.5"/>
<polygon fill="none" stroke="black" points="1309.5,-883.5 1309.5,-920.5 1486.5,-920.5 1486.5,-883.5 1309.5,-883.5"/>
<text text-anchor="start" x="1374" y="-898.3" font-family="Helvetica Neue" font-size="14.00" fill="#333333">Person</text>
<polygon fill="#ffffff" stroke="transparent" points="1309.5,-846.5 1309.5,-883.5 1486.5,-883.5 1486.5,-846.5 1309.5,-846.5"/>
<polygon fill="none" stroke="black" points="1309.5,-846.5 1309.5,-883.5 1486.5,-883.5 1486.5,-846.5 1309.5,-846.5"/>
<text text-anchor="start" x="1320.5" y="-861.3" font-family="Helvetica Neue" font-size="14.00" fill="#333333">id (bigint)</text>
<polygon fill="#ffffff" stroke="transparent" points="1309.5,-809.5 1309.5,-846.5 1486.5,-846.5 1486.5,-809.5 1309.5,-809.5"/>
<polygon fill="none" stroke="black" points="1309.5,-809.5 1309.5,-846.5 1486.5,-846.5 1486.5,-809.5 1309.5,-809.5"/>
<text text-anchor="start" x="1320.5" y="-824.3" font-family="Helvetica Neue" font-size="14.00" fill="#333333">first_name (string)</text>
<polygon fill="#ffffff" stroke="transparent" points="1309.5,-772.5 1309.5,-809.5 1486.5,-809.5 1486.5,-772.5 1309.5,-772.5"/>
<polygon fill="none" stroke="black" points="1309.5,-772.5 1309.5,-809.5 1486.5,-809.5 1486.5,-772.5 1309.5,-772.5"/>
<text text-anchor="start" x="1320.5" y="-787.3" font-family="Helvetica Neue" font-size="14.00" fill="#333333">last_name (string)</text>
<polygon fill="#ffffff" stroke="transparent" points="1309.5,-735.5 1309.5,-772.5 1486.5,-772.5 1486.5,-735.5 1309.5,-735.5"/>
<polygon fill="none" stroke="black" points="1309.5,-735.5 1309.5,-772.5 1486.5,-772.5 1486.5,-735.5 1309.5,-735.5"/>
<text text-anchor="start" x="1320.5" y="-750.3" font-family="Helvetica Neue" font-size="14.00" fill="#333333">email (string)</text>
<polygon fill="#ffffff" stroke="transparent" points="1309.5,-698.5 1309.5,-735.5 1486.5,-735.5 1486.5,-698.5 1309.5,-698.5"/>
<polygon fill="none" stroke="black" points="1309.5,-698.5 1309.5,-735.5 1486.5,-735.5 1486.5,-698.5 1309.5,-698.5"/>
<text text-anchor="start" x="1320.5" y="-713.3" font-family="Helvetica Neue" font-size="14.00" fill="#333333">id_number (string)</text>
<polygon fill="#ffffff" stroke="transparent" points="1309.5,-661.5 1309.5,-698.5 1486.5,-698.5 1486.5,-661.5 1309.5,-661.5"/>
<polygon fill="none" stroke="black" points="1309.5,-661.5 1309.5,-698.5 1486.5,-698.5 1486.5,-661.5 1309.5,-661.5"/>
<text text-anchor="start" x="1320.5" y="-676.3" font-family="Helvetica Neue" font-size="14.00" fill="#333333">phone (string)</text>
<polygon fill="#ffffff" stroke="transparent" points="1309.5,-624.5 1309.5,-661.5 1486.5,-661.5 1486.5,-624.5 1309.5,-624.5"/>
<polygon fill="none" stroke="black" points="1309.5,-624.5 1309.5,-661.5 1486.5,-661.5 1486.5,-624.5 1309.5,-624.5"/>
<text text-anchor="start" x="1320.5" y="-639.3" font-family="Helvetica Neue" font-size="14.00" fill="#333333">address (string)</text>
<polygon fill="#ffffff" stroke="transparent" points="1309.5,-587.5 1309.5,-624.5 1486.5,-624.5 1486.5,-587.5 1309.5,-587.5"/>
<polygon fill="none" stroke="black" points="1309.5,-587.5 1309.5,-624.5 1486.5,-624.5 1486.5,-587.5 1309.5,-587.5"/>
<text text-anchor="start" x="1320.5" y="-602.3" font-family="Helvetica Neue" font-size="14.00" fill="#333333">parish_id (bigint)</text>
<polygon fill="#ffffff" stroke="transparent" points="1309.5,-550.5 1309.5,-587.5 1486.5,-587.5 1486.5,-550.5 1309.5,-550.5"/>
<polygon fill="none" stroke="black" points="1309.5,-550.5 1309.5,-587.5 1486.5,-587.5 1486.5,-550.5 1309.5,-550.5"/>
<text text-anchor="start" x="1320.5" y="-565.3" font-family="Helvetica Neue" font-size="14.00" fill="#333333">user_id (bigint)</text>
<polygon fill="#ffffff" stroke="transparent" points="1309.5,-513.5 1309.5,-550.5 1486.5,-550.5 1486.5,-513.5 1309.5,-513.5"/>
<polygon fill="none" stroke="black" points="1309.5,-513.5 1309.5,-550.5 1486.5,-550.5 1486.5,-513.5 1309.5,-513.5"/>
<text text-anchor="start" x="1320.5" y="-528.3" font-family="Helvetica Neue" font-size="14.00" fill="#333333">created_at (datetime)</text>
<polygon fill="#ffffff" stroke="transparent" points="1309.5,-476.5 1309.5,-513.5 1486.5,-513.5 1486.5,-476.5 1309.5,-476.5"/>
<polygon fill="none" stroke="black" points="1309.5,-476.5 1309.5,-513.5 1486.5,-513.5 1486.5,-476.5 1309.5,-476.5"/>
<text text-anchor="start" x="1320.5" y="-491.3" font-family="Helvetica Neue" font-size="14.00" fill="#333333">updated_at (datetime)</text>
</g>
<!-- appmodelsparish&#45;&gt;appmodelsperson -->
<g id="edge9" class="edge">
<title>appmodelsparish:id&#45;&gt;appmodelsperson:parish_id</title>
<path fill="none" stroke="#fcbf49" stroke-width="1.8" d="M1160,-605.5C1160,-605.5 1265.1,-605.5 1298.76,-605.5"/>
<polygon fill="#fcbf49" stroke="#fcbf49" stroke-width="1.8" points="1299,-605.5 1309,-610 1304,-605.5 1309,-605.5 1309,-605.5 1309,-605.5 1304,-605.5 1309,-601 1299,-605.5 1299,-605.5"/>
<text text-anchor="middle" x="1234.5" y="-609.3" font-family="Helvetica Neue" font-size="14.00"> </text>
<text text-anchor="middle" x="1197.38" y="-594.3" font-family="Helvetica Neue" font-size="14.00">HasMany</text>
<text text-anchor="middle" x="1197.38" y="-579.3" font-family="Helvetica Neue" font-size="14.00">people</text>
</g>
<!-- appmodelsperson&#45;&gt;appmodelsparish -->
<g id="edge11" class="edge">
<title>appmodelsperson:parish_id&#45;&gt;appmodelsparish:id</title>
<path fill="none" stroke="#f77f00" stroke-width="1.8" d="M1299.88,-601.32C1280.51,-592.44 1237,-572.5 1237,-572.5 1237,-572.5 1232,-572.5 1232,-572.5 1232,-572.5 1180.74,-595.99 1164.72,-603.33"/>
<polygon fill="#f77f00" stroke="#f77f00" stroke-width="1.8" points="1299.91,-601.33 1307.13,-609.59 1304.45,-603.42 1309,-605.5 1309,-605.5 1309,-605.5 1304.45,-603.42 1310.87,-601.41 1299.91,-601.33 1299.91,-601.33"/>
<polygon fill="#f77f00" stroke="#f77f00" stroke-width="1.8" points="1162.99,-609.63 1158.83,-600.54 1160.64,-599.7 1164.81,-608.8 1162.99,-609.63"/>
<polyline fill="none" stroke="#f77f00" stroke-width="1.8" points="1160,-605.5 1164.55,-603.42 "/>
<text text-anchor="middle" x="1234.5" y="-576.3" font-family="Helvetica Neue" font-size="14.00"> </text>
<text text-anchor="middle" x="1197.08" y="-561.3" font-family="Helvetica Neue" font-size="14.00">BelongsTo</text>
<text text-anchor="middle" x="1197.08" y="-546.3" font-family="Helvetica Neue" font-size="14.00">parish</text>
</g>
<!-- appmodelsuser -->
<g id="node7" class="node">
<title>appmodelsuser</title>
<polygon fill="none" stroke="black" points="1851,-624 1635,-624 1635,-291 1851,-291 1851,-624"/>
<polygon fill="#d3d3d3" stroke="transparent" points="1635,-586.5 1635,-623.5 1851,-623.5 1851,-586.5 1635,-586.5"/>
<polygon fill="none" stroke="black" points="1635,-586.5 1635,-623.5 1851,-623.5 1851,-586.5 1635,-586.5"/>
<text text-anchor="start" x="1726.5" y="-601.3" font-family="Helvetica Neue" font-size="14.00" fill="#333333">User</text>
<polygon fill="#ffffff" stroke="transparent" points="1635,-549.5 1635,-586.5 1851,-586.5 1851,-549.5 1635,-549.5"/>
<polygon fill="none" stroke="black" points="1635,-549.5 1635,-586.5 1851,-586.5 1851,-549.5 1635,-549.5"/>
<text text-anchor="start" x="1646" y="-564.3" font-family="Helvetica Neue" font-size="14.00" fill="#333333">id (bigint)</text>
<polygon fill="#ffffff" stroke="transparent" points="1635,-512.5 1635,-549.5 1851,-549.5 1851,-512.5 1635,-512.5"/>
<polygon fill="none" stroke="black" points="1635,-512.5 1635,-549.5 1851,-549.5 1851,-512.5 1635,-512.5"/>
<text text-anchor="start" x="1646" y="-527.3" font-family="Helvetica Neue" font-size="14.00" fill="#333333">name (string)</text>
<polygon fill="#ffffff" stroke="transparent" points="1635,-475.5 1635,-512.5 1851,-512.5 1851,-475.5 1635,-475.5"/>
<polygon fill="none" stroke="black" points="1635,-475.5 1635,-512.5 1851,-512.5 1851,-475.5 1635,-475.5"/>
<text text-anchor="start" x="1646" y="-490.3" font-family="Helvetica Neue" font-size="14.00" fill="#333333">email (string)</text>
<polygon fill="#ffffff" stroke="transparent" points="1635,-438.5 1635,-475.5 1851,-475.5 1851,-438.5 1635,-438.5"/>
<polygon fill="none" stroke="black" points="1635,-438.5 1635,-475.5 1851,-475.5 1851,-438.5 1635,-438.5"/>
<text text-anchor="start" x="1646" y="-453.3" font-family="Helvetica Neue" font-size="14.00" fill="#333333">email_verified_at (datetime)</text>
<polygon fill="#ffffff" stroke="transparent" points="1635,-401.5 1635,-438.5 1851,-438.5 1851,-401.5 1635,-401.5"/>
<polygon fill="none" stroke="black" points="1635,-401.5 1635,-438.5 1851,-438.5 1851,-401.5 1635,-401.5"/>
<text text-anchor="start" x="1646" y="-416.3" font-family="Helvetica Neue" font-size="14.00" fill="#333333">password (string)</text>
<polygon fill="#ffffff" stroke="transparent" points="1635,-364.5 1635,-401.5 1851,-401.5 1851,-364.5 1635,-364.5"/>
<polygon fill="none" stroke="black" points="1635,-364.5 1635,-401.5 1851,-401.5 1851,-364.5 1635,-364.5"/>
<text text-anchor="start" x="1646" y="-379.3" font-family="Helvetica Neue" font-size="14.00" fill="#333333">remember_token (string)</text>
<polygon fill="#ffffff" stroke="transparent" points="1635,-327.5 1635,-364.5 1851,-364.5 1851,-327.5 1635,-327.5"/>
<polygon fill="none" stroke="black" points="1635,-327.5 1635,-364.5 1851,-364.5 1851,-327.5 1635,-327.5"/>
<text text-anchor="start" x="1646" y="-342.3" font-family="Helvetica Neue" font-size="14.00" fill="#333333">created_at (datetime)</text>
<polygon fill="#ffffff" stroke="transparent" points="1635,-290.5 1635,-327.5 1851,-327.5 1851,-290.5 1635,-290.5"/>
<polygon fill="none" stroke="black" points="1635,-290.5 1635,-327.5 1851,-327.5 1851,-290.5 1635,-290.5"/>
<text text-anchor="start" x="1646" y="-305.3" font-family="Helvetica Neue" font-size="14.00" fill="#333333">updated_at (datetime)</text>
</g>
<!-- appmodelsperson&#45;&gt;appmodelsuser -->
<g id="edge10" class="edge">
<title>appmodelsperson:user_id&#45;&gt;appmodelsuser:id</title>
<path fill="none" stroke="#f77f00" stroke-width="1.8" d="M1496.24,-568.5C1525.43,-568.5 1608.34,-568.5 1629.85,-568.5"/>
<polygon fill="#f77f00" stroke="#f77f00" stroke-width="1.8" points="1496,-568.5 1486,-564 1491,-568.5 1486,-568.5 1486,-568.5 1486,-568.5 1491,-568.5 1486,-573 1496,-568.5 1496,-568.5"/>
<polygon fill="#f77f00" stroke="#f77f00" stroke-width="1.8" points="1634,-563.5 1634,-573.5 1632,-573.5 1632,-563.5 1634,-563.5"/>
<polyline fill="none" stroke="#f77f00" stroke-width="1.8" points="1635,-568.5 1630,-568.5 "/>
<text text-anchor="middle" x="1560.5" y="-572.3" font-family="Helvetica Neue" font-size="14.00"> </text>
<text text-anchor="middle" x="1598.05" y="-557.3" font-family="Helvetica Neue" font-size="14.00">BelongsTo</text>
<text text-anchor="middle" x="1598.05" y="-542.3" font-family="Helvetica Neue" font-size="14.00">user</text>
</g>
<!-- appmodelsuser&#45;&gt;appmodelsperson -->
<g id="edge12" class="edge">
<title>appmodelsuser:id&#45;&gt;appmodelsperson:user_id</title>
<path fill="none" stroke="#fcbf49" stroke-width="1.8" d="M1635,-568.5C1635,-568.5 1563,-535.5 1563,-535.5 1563,-535.5 1558,-535.5 1558,-535.5 1558,-535.5 1514.49,-555.44 1495.12,-564.32"/>
<polygon fill="#fcbf49" stroke="#fcbf49" stroke-width="1.8" points="1495.09,-564.33 1484.13,-564.41 1490.55,-566.42 1486,-568.5 1486,-568.5 1486,-568.5 1490.55,-566.42 1487.87,-572.59 1495.09,-564.33 1495.09,-564.33"/>
<text text-anchor="middle" x="1560.5" y="-539.3" font-family="Helvetica Neue" font-size="14.00"> </text>
<text text-anchor="middle" x="1597.29" y="-525.35" font-family="Helvetica Neue" font-size="14.00">HasMany</text>
<text text-anchor="middle" x="1597.29" y="-510.35" font-family="Helvetica Neue" font-size="14.00">people</text>
</g>
</g>
</svg>
